<?xml version="1.0" standalone="no"?>
<!DOCTYPE svg PUBLIC "-//W3C//DTD SVG 20010904//EN"
 "http://www.w3.org/TR/2001/REC-SVG-20010904/DTD/svg10.dtd">
<svg version="1.0" xmlns="http://www.w3.org/2000/svg"
 width="265.000000pt" height="287.000000pt" viewBox="0 0 265.000000 287.000000"
 preserveAspectRatio="xMidYMid meet">
<metadata>
Created by potrace 1.16, written by Peter Selinger 2001-2019
</metadata>
<g transform="translate(0.000000,287.000000) scale(0.100000,-0.100000)"
fill="#000000" stroke="none">
<path d="M1214 2499 c-51 -15 -83 -54 -107 -130 -3 -9 -157 -103 -342 -210
-242 -139 -345 -204 -364 -228 l-26 -34 0 -472 0 -472 26 -34 c36 -46 784
-479 828 -479 54 0 78 68 47 128 -10 20 -102 78 -353 222 -186 107 -350 207
-365 222 l-28 26 0 386 0 385 23 25 c12 13 162 105 334 204 304 175 312 179
360 175 65 -6 111 20 141 80 19 36 23 54 17 87 -9 53 -55 106 -103 120 -42 11
-46 11 -88 -1z m81 -53 c31 -13 65 -58 65 -86 0 -27 -33 -78 -56 -89 -68 -31
-144 13 -144 82 0 41 38 93 73 100 12 2 23 5 25 6 1 0 18 -5 37 -13z"/>
<path d="M1530 2363 c-42 -15 -56 -102 -22 -141 9 -12 169 -109 355 -216 187
-107 347 -202 358 -212 18 -16 19 -36 19 -413 0 -218 -4 -401 -8 -407 -4 -7
-147 -91 -319 -188 l-311 -176 -54 6 c-60 7 -96 -6 -135 -48 -50 -53 -53 -133
-6 -188 24 -29 27 -30 118 -30 91 0 94 1 112 28 11 15 24 38 30 52 8 18 100
76 345 218 184 106 342 200 351 210 45 50 47 68 47 524 0 504 1 492 -92 551
-101 64 -739 429 -756 432 -9 2 -24 1 -32 -2z m46 -1811 c28 -22 44 -54 44
-86 0 -33 -44 -83 -80 -91 -61 -13 -128 54 -115 115 14 65 103 101 151 62z"/>
<path d="M1332 1824 c-194 -51 -357 -96 -363 -99 -28 -18 -57 -128 -40 -154 8
-12 66 0 363 78 194 51 361 97 370 102 10 5 24 33 33 61 18 62 18 70 3 90 -12
15 -48 7 -366 -78z"/>
<path d="M1523 1636 c-439 -117 -578 -158 -596 -174 -37 -35 -73 -120 -60
-140 6 -9 17 -16 24 -16 12 1 507 131 983 258 92 25 179 52 192 61 30 19 76
109 72 138 -2 13 -11 23 -23 24 -11 1 -278 -67 -592 -151z"/>
<path d="M1550 1389 c-184 -49 -438 -117 -564 -150 -126 -34 -240 -68 -253
-77 -14 -8 -38 -42 -54 -74 -24 -47 -27 -62 -18 -79 6 -11 16 -18 23 -16 6 3
270 73 586 157 431 114 581 157 598 173 34 31 74 114 67 138 -4 11 -15 19 -28
18 -12 0 -173 -41 -357 -90z"/>
<path d="M1540 1110 c-421 -113 -395 -103 -414 -150 -20 -51 -21 -109 -2 -116
8 -3 173 36 367 88 400 106 390 101 393 199 1 51 0 54 -24 56 -14 1 -158 -34
-320 -77z"/>
<path d="M977 234 c-4 -4 -4 -11 -1 -15 3 -5 180 -9 395 -9 339 0 389 2 389
15 0 13 -50 15 -388 15 -214 0 -392 -3 -395 -6z"/>
</g>
</svg>
